<svg width="480" height="620" viewBox="0 0 480 620" fill="none" xmlns="http://www.w3.org/2000/svg">
  <rect width="480" height="620" rx="56" fill="#FFF9F2"/>
  <rect x="34" y="38" width="412" height="544" rx="42" fill="url(#pack)"/>
  <rect x="126" y="88" width="228" height="28" rx="14" fill="rgba(255,255,255,.82)"/>
  <circle cx="240" cy="302" r="108" fill="#FFF6D9"/>
  <path d="M240 196C286 256 291 351 240 396C189 351 194 256 240 196Z" fill="#FFD55E"/>
  <circle cx="208" cy="286" r="13" fill="#314058"/>
  <circle cx="272" cy="286" r="13" fill="#314058"/>
  <path d="M214 330C228 344 252 344 266 330" stroke="#314058" stroke-width="12" stroke-linecap="round"/>
  <rect x="150" y="450" width="180" height="24" rx="12" fill="rgba(255,255,255,.86)"/>
  <rect x="176" y="490" width="128" height="18" rx="9" fill="rgba(255,255,255,.74)"/>
  <defs>
    <linearGradient id="pack" x1="240" y1="38" x2="240" y2="582" gradientUnits="userSpaceOnUse">
      <stop stop-color="#FFE080"/>
      <stop offset="1" stop-color="#FFB84E"/>
    </linearGradient>
  </defs>
</svg>
